<?xml version="1.0" encoding="utf-8"?>
<!DOCTYPE svg PUBLIC "-//W3C//DTD SVG 1.1//EN" "http://www.w3.org/Graphics/SVG/1.1/DTD/svg11.dtd">
<svg version="1.1" xmlns="http://www.w3.org/2000/svg" xmlns:xlink="http://www.w3.org/1999/xlink" viewBox="0 0 114 114" xml:space="preserve">
    <rect x="-353.434" y="49" fill="#010101" width="16" height="15.999"/>
    <path fill="#010101" d="M-734.475-126.961l76.232-164.165h28.146l-76.232,164.165H-734.475z"/>
    <path fill="#010101" d="M-541.414-267.661c-2.578-0.709-6.328-1.184-9.14-1.184c-7.504,0-13.379,2.118-17.129,6.573
        c-2.578,3.286-4.221,7.5-4.221,18.06v3.521h35.186v25.809l-35.186-0.015v87.95h-30.49v-87.964h-29.321v-25.795l29.321,0.008v-4.703
        c0-18.294,4.221-29.308,12.192-37.056c7.985-7.741,19.94-13.357,35.427-13.357c6.098,0,11.729,0.468,18.057,2.118L-541.414-267.661
        z"/>
    <path fill="#FFFFFF" d="M-349.95,64.102l6.595-14.204h2.436l-6.595,14.204H-349.95z"/>
    <path fill="#010101" d="M-463.85-243.028c34.474,0,60.505,26.509,60.505,59.344c0,32.849-26.031,59.11-60.505,59.096
        c-34.484,0-60.509-26.268-60.509-59.11C-524.359-216.533-498.335-243.036-463.85-243.028z M-463.85-152.727
        c17.82,0,30.019-13.832,30.019-30.957s-12.199-31.198-30.019-31.198c-17.83,0-30.022,14.073-30.022,31.191
        S-481.68-152.727-463.85-152.727z"/>
    <path fill="#010101" d="M-310.543-213.679c-2.111-0.701-6.572-1.19-11.027-1.19c-13.365,0-23.925,9.626-27.679,16.432v71.533
        l-30.482-0.015V-240.67h29.321v11.494c6.792-8.442,19.228-13.824,33.061-13.824c4.462,0,7.04,0.467,10.319,0.928L-310.543-213.679z
        "/>
    <path fill="#010101" d="M-268.58-300.461c11.035,0,19.937,8.435,19.937,19.463c0,11.021-8.902,19.463-19.937,19.463
        c-11.02,0-19.93-8.442-19.93-19.463C-288.51-292.025-279.6-300.461-268.58-300.461z M-253.331-126.904h-30.483v-113.752h30.483
        V-126.904z"/>
    <path fill="#010101" d="M-169.906-242.986c34.477,0,60.512,26.517,60.512,59.352c0,32.834-26.035,59.103-60.512,59.096
        c-34.477-0.007-60.52-26.283-60.52-59.117C-230.426-216.483-204.384-242.986-169.906-242.986z M-169.906-152.685
        c17.819,0,30.016-13.825,30.016-30.95c0-17.133-12.196-31.206-30.016-31.213c-17.827,0-30.03,14.08-30.03,31.198
        C-199.937-166.523-187.733-152.685-169.906-152.685z"/>
    <g>
        <polygon fill="#F7323F" points="-691.697,90.613 -736.61,79.234 -747.557,57.618 -790.223,47 -832.435,47 -832.435,44 
            -789.855,44 -745.5,55.038 -734.55,76.661 -692.048,87.43 -671.269,76.939 -660.434,44.232 -637.271,21.132 -637.306,25.41 
            -657.811,45.852 -668.81,79.061      "/>
        <polygon fill="#77E0C1" points="-790.007,69.108 -832.565,25.38 -832.59,21.113 -789.987,64.829 -757.895,32.481 -736.205,32.418 
            -724.787,22 -692.496,22 -670.011,-0.646 -647.901,10.248 -637.214,10.188 -637.196,13.188 -648.593,13.252 -669.401,2.999 
            -691.248,25 -723.625,25 -735.039,35.416 -756.641,35.478         "/>
        <polygon fill="#0082CA" points="-757.219,113.648 -811.922,80 -832.435,80 -832.435,77 -811.072,77 -757.359,110.039 
            -681.319,54.721 -648.671,54.707 -637.36,43.887 -637.386,48.152 -647.47,57.705 -680.343,57.721       "/>
    </g>
    <rect x="-305.839" y="41" fill="#010101" width="32" height="31.999"/>
    <path fill="#FFFFFF" d="M-298.87,71.203l13.191-28.408h4.871l-13.191,28.408H-298.87z"/>
    <rect x="-235.839" y="25.001" fill="#010101" width="64" height="64"/>
    <path fill="#FFFFFF" d="M-221.901,85.409l26.385-56.818h9.742l-26.385,56.818H-221.901z"/>
    <g>
        <rect x="-130.5" y="21" fill="#010101" width="72" height="72"/>
        <path fill="#FFFFFF" d="M-114.82,88.959l29.683-63.92h10.96l-29.683,63.92H-114.82z"/>
    </g>
    <g>
        <rect x="0.351" y="0.352" fill="#010101" width="113.297" height="113.297"/>
        <path fill="#FFFFFF" d="M25.024,107.29L71.732,6.707h17.246L42.271,107.29H25.024z"/>
    </g>
    <g>
        <polygon fill="#77E0C1" fill-opacity="0.6" points="-338.534,-29.468 -345.461,-25.468 -352.39,-29.468 -352.39,-37.468 
            -345.407,-41.468 -338.479,-37.468       "/>
        <polygon fill="#F05050" fill-opacity="0.8" points="-352.362,-37.468 -352.362,-29.468 -345.434,-25.468 -345.434,-41.468      "/>
        <polygon fill="#0082CA" fill-opacity="0.8" points="-345.461,-25.468 -338.534,-29.468 -338.479,-37.468 -352.39,-29.468       "/>
    </g>
    <g>
        <polygon fill="#77E0C1" fill-opacity="0.6" points="-276.11,-27.213 -289.892,-19.255 -303.677,-27.213 -303.677,-43.13 
            -289.782,-51.088 -276.001,-43.13        "/>
        <polygon fill="#F05050" fill-opacity="0.8" points="-303.622,-43.13 -303.622,-27.213 -289.837,-19.255 -289.837,-51.088       "/>
        <polygon fill="#0082CA" fill-opacity="0.8" points="-289.892,-19.255 -276.11,-27.213 -276.001,-43.13 -303.677,-27.213        "/>
    </g>
    <g>
        <polygon fill="#77E0C1" fill-opacity="0.6" points="-176.313,-31.971 -203.944,-16.016 -231.583,-31.971 -231.583,-63.886 
            -203.726,-79.841 -176.095,-63.886       "/>
        <polygon fill="#F05050" fill-opacity="0.8" points="-231.474,-63.886 -231.474,-31.971 -203.835,-16.016 -203.835,-79.841      "/>
        <polygon fill="#0082CA" fill-opacity="0.8" points="-203.944,-16.016 -176.313,-31.971 -176.095,-63.886 -231.583,-31.971      "/>
    </g>
</svg>